# xmcd CD database file
#
# Track frame offsets:
#	183
#	26443
#	48530
#	73103
#	89193
#	113773
#	132193
#	154510
#	178133
#	191218
#	214973
#	247925
#	277465
#	290673
#	300268
#	311993
#	321605
#
# Disc length: 4498 seconds
#
# Revision: 1
# Processed by: cddbd v1.5PL3 Copyright (c) Steve Scherf et al.
# Submitted via: CDex 1.51
#
DISCID=12119011
DTITLE=Charlie Parker - Bird At Birdland [CD4]
DYEAR=1952
DGENRE=Jazz
TTITLE0=Ornithology
TTITLE1=52nd Street Theme
TTITLE2=How High The Moon
TTITLE3=Embraceable You
TTITLE4=Your Father's Moustache
TTITLE5=Cool Blues
TTITLE6=Star Eyes
TTITLE7=Moose The Mooche
TTITLE8=Broadway
TTITLE9=Moose The Mooche
TTITLE10=Cheryl
TTITLE11=The Bluest Blues
TTITLE12=On The Sunny Side Of The Street
TTITLE13=What Is This Thing Called Love
TTITLE14=Repetition
TTITLE15=Easy To Love
TTITLE16=East Of The Sun
EXTD=YEAR: 1952
EXTT0=
EXTT1=
EXTT2=
EXTT3=
EXTT4=
EXTT5=
EXTT6=
EXTT7=
EXTT8=
EXTT9=
EXTT10=
EXTT11=
EXTT12=
EXTT13=
EXTT14=
EXTT15=
EXTT16=
PLAYORDER=
